<?xml version="1.0" encoding="utf-8"?>
<!-- Generator: Adobe Illustrator 17.1.0, SVG Export Plug-In . SVG Version: 6.00 Build 0)  -->
<!DOCTYPE svg PUBLIC "-//W3C//DTD SVG 1.1//EN" "http://www.w3.org/Graphics/SVG/1.1/DTD/svg11.dtd">
<svg version="1.1" id="sewing_x5F_string" xmlns="http://www.w3.org/2000/svg" xmlns:xlink="http://www.w3.org/1999/xlink" x="0px"
	 y="0px" viewBox="0 0 512 512" enable-background="new 0 0 512 512" xml:space="preserve">
<circle fill="#E5EFEF" cx="195.6" cy="308" r="146.8"/>
<path fill="#EDEBDC" d="M408.4,235.5L284.9,112l-1.1-25.6c-0.2-6,2-11.8,6.3-16c8.4-8.4,22-8.4,30.3,0L450.1,200
	c8.4,8.4,8.4,22,0,30.3c-4.2,4.2-10.1,6.5-16,6.3L408.4,235.5z"/>
<path fill="#FFFFFF" d="M434.9,243.4c-0.4,0-0.8,0-1.2,0l-25.6-1.1c-1.7-0.1-3.3-0.8-4.5-2L280.1,116.8c-1.2-1.2-1.9-2.8-2-4.5
	L277,86.7c-0.3-7.9,2.7-15.6,8.3-21.2c11-11,29-11,40,0l129.6,129.6c11,11,11,29,0,40C449.6,240.4,442.4,243.4,434.9,243.4
	L434.9,243.4z M411.3,228.8l23,0.9c4.1,0.2,8.1-1.4,10.9-4.3c5.7-5.7,5.7-15,0-20.7L315.6,75.2c-5.7-5.7-15-5.7-20.7,0
	c-2.9,2.9-4.4,6.9-4.3,10.9l0.9,23L411.3,228.8z"/>
<path fill="#EDEBDC" d="M130.5,266.5L253.9,390l1.1,25.6c0.2,6-2,11.8-6.3,16c-8.4,8.4-22,8.4-30.3,0L88.8,302
	c-8.4-8.4-8.4-22,0-30.3c4.2-4.2,10.1-6.5,16-6.3L130.5,266.5z"/>
<path fill="#FFFFFF" d="M233.6,444.7c-7.2,0-14.5-2.8-20-8.3L83.9,306.8c-11-11-11-29,0-40c5.6-5.6,13.3-8.6,21.2-8.3l25.6,1.1
	c1.7,0.1,3.3,0.8,4.5,2l123.5,123.5c1.2,1.2,1.9,2.8,2,4.5l1.1,25.6c0.3,7.9-2.7,15.6-8.3,21.2C248.1,442,240.8,444.7,233.6,444.7z
	 M103.9,272.2c-3.9,0-7.6,1.5-10.3,4.3c-5.7,5.7-5.7,15,0,20.7l129.6,129.6c5.7,5.7,15,5.7,20.7,0c2.9-2.9,4.4-6.9,4.3-10.9l-0.9-23
	L127.5,273.2l-23-0.9C104.3,272.2,104.1,272.2,103.9,272.2z"/>
<path fill="#BAE0DF" d="M283.2,110.3l126.9,126.9L255.6,391.6L128.8,264.7L283.2,110.3z"/>
<g>
	<path fill="#FFFFFF" d="M255.6,398.5c-1.7,0-3.5-0.7-4.8-2L123.9,269.6c-1.3-1.3-2-3-2-4.8s0.7-3.5,2-4.8l154.5-154.5
		c2.7-2.7,7-2.7,9.7,0l126.9,126.9c1.3,1.3,2,3,2,4.8c0,1.8-0.7,3.5-2,4.8L260.5,396.5C259.1,397.8,257.4,398.5,255.6,398.5
		L255.6,398.5z M138.4,264.8L255.6,382l144.8-144.8L283.2,120L138.4,264.8z"/>
	<path fill="#FFFFFF" d="M402,236.9c-1.1,0-2.2-0.3-3.2-0.8c-74.5-40.3-133.2-103.3-135.6-105.9c-2.6-2.8-2.4-7.1,0.4-9.6
		c2.8-2.6,7.1-2.4,9.6,0.4c0.6,0.6,59.7,64,132.1,103.2c3.3,1.8,4.6,5.9,2.8,9.3C406.7,235.6,404.4,236.9,402,236.9L402,236.9z"/>
	<path fill="#FFFFFF" d="M362.1,288.8c-1.9,0-3.7-0.8-5.1-2.3c-67-74.5-89.3-162.3-90.2-166c-0.9-3.7,1.3-7.4,5-8.3
		c3.7-0.9,7.4,1.3,8.3,5c0.2,0.9,22.5,88.3,87.1,160.2c2.5,2.8,2.3,7.1-0.5,9.6C365.4,288.2,363.7,288.8,362.1,288.8L362.1,288.8z"
		/>
	<path fill="#FFFFFF" d="M394.6,257.6c-1.1,0-2.2-0.3-3.2-0.8c-84.3-44.3-145.6-99.9-146.2-100.5c-2.8-2.5-3-6.9-0.4-9.6
		c2.5-2.8,6.9-3,9.6-0.4c0.6,0.5,60.7,55,143.3,98.5c3.3,1.8,4.6,5.9,2.9,9.2C399.5,256.3,397.1,257.6,394.6,257.6L394.6,257.6z"/>
	<path fill="#FFFFFF" d="M376.7,274.2c-1,0-1.9-0.2-2.9-0.6c-77.2-35.8-158.7-91.9-159.5-92.5c-3.1-2.1-3.9-6.4-1.7-9.5
		c2.1-3.1,6.4-3.9,9.5-1.7c0.8,0.6,81.4,56,157.5,91.3c3.4,1.6,4.9,5.6,3.3,9.1C381.7,272.8,379.2,274.2,376.7,274.2L376.7,274.2z"
		/>
	<path fill="#FFFFFF" d="M336,317.5c-1.9,0-3.7-0.8-5.1-2.3c-57-63.9-100.8-152.8-101.2-153.7c-1.7-3.4-0.3-7.5,3.1-9.1
		c3.4-1.7,7.5-0.3,9.1,3.1c0.4,0.9,43.5,88.2,99.2,150.6c2.5,2.8,2.3,7.1-0.5,9.6C339.3,317,337.7,317.5,336,317.5z"/>
	<path fill="#FFFFFF" d="M306.7,345.5c-1.6,0-3.3-0.6-4.6-1.8c-64.5-58.2-98.7-151.6-100.1-155.6c-1.1-3,0.1-6.4,2.8-8.1
		c2.7-1.7,6.3-1.2,8.5,1.1c0.7,0.7,69.4,72.3,137.2,109.5c3.3,1.8,4.5,6,2.7,9.3c-1.8,3.3-6,4.5-9.3,2.7
		c-44.9-24.7-89.2-62.9-115.7-87.7c15.3,32.4,43.5,83.2,82.9,118.7c2.8,2.5,3,6.8,0.5,9.6C310.5,344.8,308.6,345.5,306.7,345.5z"/>
	<path fill="#FFFFFF" d="M322.7,330.8c-1.1,0-2.2-0.3-3.2-0.8c-5-2.7-123.6-65.7-154.5-102.2c-2.4-2.9-2.1-7.2,0.8-9.6
		c2.9-2.4,7.2-2.1,9.6,0.8c29.2,34.5,149.3,98.3,150.5,98.9c3.3,1.8,4.6,5.9,2.8,9.2C327.5,329.5,325.2,330.8,322.7,330.8
		L322.7,330.8z"/>
	<path fill="#FFFFFF" d="M286.7,365.5c-1.3,0-2.6-0.4-3.8-1.2c-0.9-0.6-86.6-58.5-138.7-114.5c-2.6-2.8-2.4-7.1,0.4-9.6
		c2.8-2.6,7.1-2.4,9.6,0.4c29.6,31.9,70.6,64.5,99.8,86.4c-36.8-52.4-70.4-113.9-72.2-117.1c-1.8-3.3-0.6-7.5,2.7-9.3
		c3.3-1.8,7.5-0.6,9.3,2.7c0.5,1,53.4,97.5,98.1,151c2.2,2.6,2.1,6.4-0.2,8.9C290.5,364.7,288.6,365.5,286.7,365.5L286.7,365.5z"/>
	<path fill="#FFFFFF" d="M301.8,402.9c-23.3,0-41.6-17.2-42.4-18c-74.6-72.7-101.8-148.7-103-151.9c-1.2-3.6,0.6-7.5,4.2-8.7
		c3.6-1.2,7.4,0.6,8.7,4.2c0.3,0.8,27.4,76.3,99.6,146.6c0.1,0.1,16.8,15.6,35.7,14c10.4-0.9,20-7,28.3-18.1
		c35.5-47.3,60.9-36.5,63.7-35.1l-6.1,12.2l0.2,0.1c-0.2-0.1-18.3-7.1-46.8,31c-10.8,14.4-23.7,22.3-38.2,23.5
		C304.4,402.8,303.1,402.9,301.8,402.9z"/>
	<path fill="#FFFFFF" d="M103.4,93c-3.8,0-6.8-3.1-6.8-6.8V65.6c0-3.8,3.1-6.8,6.8-6.8s6.8,3.1,6.8,6.8v20.5
		C110.3,89.9,107.2,93,103.4,93z"/>
	<path fill="#FFFFFF" d="M103.4,140.7c-3.8,0-6.8-3.1-6.8-6.8v-20.5c0-3.8,3.1-6.8,6.8-6.8s6.8,3.1,6.8,6.8v20.5
		C110.3,137.7,107.2,140.7,103.4,140.7z"/>
	<path fill="#FFFFFF" d="M89.8,106.6H69.3c-3.8,0-6.8-3.1-6.8-6.8c0-3.8,3.1-6.8,6.8-6.8h20.5c3.8,0,6.8,3.1,6.8,6.8
		C96.6,103.6,93.6,106.6,89.8,106.6z"/>
	<path fill="#FFFFFF" d="M137.6,106.6h-20.5c-3.8,0-6.8-3.1-6.8-6.8c0-3.8,3.1-6.8,6.8-6.8h20.5c3.8,0,6.8,3.1,6.8,6.8
		C144.4,103.6,141.3,106.6,137.6,106.6z"/>
	<path fill="#FFFFFF" d="M400.4,434.3c-13.2,0-23.9-10.7-23.9-23.9c0-13.2,10.7-23.9,23.9-23.9s23.9,10.7,23.9,23.9
		C424.3,423.6,413.6,434.3,400.4,434.3z M400.4,400.2c-5.6,0-10.2,4.6-10.2,10.2s4.6,10.2,10.2,10.2s10.2-4.6,10.2-10.2
		S406,400.2,400.4,400.2z"/>
	<circle fill="#FFFFFF" cx="205.8" cy="79.3" r="6.8"/>
	<circle fill="#FFFFFF" cx="451.6" cy="311.4" r="6.8"/>
	<circle fill="#FFFFFF" cx="76.1" cy="202.2" r="6.8"/>
</g>
</svg>
